<svg width="700" height="700" viewBox="0 0 700 700" fill="none" xmlns="http://www.w3.org/2000/svg">
<path fill-rule="evenodd" clip-rule="evenodd" d="M350 631.944C505.714 631.944 631.944 505.714 631.944 350C631.944 194.286 505.714 68.0556 350 68.0556C194.286 68.0556 68.0556 194.286 68.0556 350C68.0556 505.714 194.286 631.944 350 631.944ZM350 700C543.3 700 700 543.3 700 350C700 156.7 543.3 0 350 0C156.7 0 0 156.7 0 350C0 543.3 156.7 700 350 700Z" fill="black"/>
<path fill-rule="evenodd" clip-rule="evenodd" d="M350 631.944C505.714 631.944 631.944 505.714 631.944 350C631.944 194.286 505.714 68.0556 350 68.0556C194.286 68.0556 68.0556 194.286 68.0556 350C68.0556 505.714 194.286 631.944 350 631.944ZM350 700C543.3 700 700 543.3 700 350C700 156.7 543.3 0 350 0C156.7 0 0 156.7 0 350C0 543.3 156.7 700 350 700Z" fill="url(#paint0_linear_21_2)"/>
<path d="M158.796 247.106C158.796 224.286 177.296 205.787 200.116 205.787H290.856C313.677 205.787 332.176 224.286 332.176 247.106C332.176 269.927 313.677 288.426 290.856 288.426H200.116C177.296 288.426 158.796 269.927 158.796 247.106Z" fill="black"/>
<path d="M158.796 247.106C158.796 224.286 177.296 205.787 200.116 205.787H290.856C313.677 205.787 332.176 224.286 332.176 247.106C332.176 269.927 313.677 288.426 290.856 288.426H200.116C177.296 288.426 158.796 269.927 158.796 247.106Z" fill="url(#paint1_linear_21_2)"/>
<path d="M523.38 243.866C523.38 276.53 496.9 303.009 464.236 303.009C431.572 303.009 405.093 276.53 405.093 243.866C405.093 211.202 431.572 184.722 464.236 184.722C496.9 184.722 523.38 211.202 523.38 243.866Z" fill="black"/>
<path d="M523.38 243.866C523.38 276.53 496.9 303.009 464.236 303.009C431.572 303.009 405.093 276.53 405.093 243.866C405.093 211.202 431.572 184.722 464.236 184.722C496.9 184.722 523.38 211.202 523.38 243.866Z" fill="url(#paint2_linear_21_2)"/>
<path fill-rule="evenodd" clip-rule="evenodd" d="M525.655 393.88C540.797 410.35 539.72 435.976 523.25 451.118C469.816 500.243 413.847 532.446 352.007 533.501C289.737 534.563 231.825 503.919 174.938 450.941C158.566 435.693 157.654 410.061 172.902 393.688C188.149 377.316 213.782 376.404 230.154 391.652C279.402 437.516 317.902 453.053 350.626 452.494C383.78 451.929 421.388 434.711 468.417 391.475C484.887 376.333 510.513 377.41 525.655 393.88Z" fill="black"/>
<path fill-rule="evenodd" clip-rule="evenodd" d="M525.655 393.88C540.797 410.35 539.72 435.976 523.25 451.118C469.816 500.243 413.847 532.446 352.007 533.501C289.737 534.563 231.825 503.919 174.938 450.941C158.566 435.693 157.654 410.061 172.902 393.688C188.149 377.316 213.782 376.404 230.154 391.652C279.402 437.516 317.902 453.053 350.626 452.494C383.78 451.929 421.388 434.711 468.417 391.475C484.887 376.333 510.513 377.41 525.655 393.88Z" fill="url(#paint3_linear_21_2)"/>
<defs>
<linearGradient id="paint0_linear_21_2" x1="-2.99633e-06" y1="542.009" x2="700" y2="157.991" gradientUnits="userSpaceOnUse">
<stop offset="0.505" stop-color="#A9E1FF"/>
<stop offset="1" stop-color="#C6FFA9"/>
</linearGradient>
<linearGradient id="paint1_linear_21_2" x1="-2.99633e-06" y1="542.009" x2="700" y2="157.991" gradientUnits="userSpaceOnUse">
<stop offset="0.505" stop-color="#A9E1FF"/>
<stop offset="1" stop-color="#C6FFA9"/>
</linearGradient>
<linearGradient id="paint2_linear_21_2" x1="-2.99633e-06" y1="542.009" x2="700" y2="157.991" gradientUnits="userSpaceOnUse">
<stop offset="0.505" stop-color="#A9E1FF"/>
<stop offset="1" stop-color="#C6FFA9"/>
</linearGradient>
<linearGradient id="paint3_linear_21_2" x1="-2.99633e-06" y1="542.009" x2="700" y2="157.991" gradientUnits="userSpaceOnUse">
<stop offset="0.505" stop-color="#A9E1FF"/>
<stop offset="1" stop-color="#C6FFA9"/>
</linearGradient>
</defs>
</svg>
